<svg width="74" height="74" viewBox="0 0 74 74" fill="none" xmlns="http://www.w3.org/2000/svg">
<path d="M73.4172 11.3678C73.3025 10.5672 72.7459 9.89997 71.9787 9.64363C71.2157 9.38517 70.3671 9.58727 69.7937 10.1586L66.7748 13.1796C65.1611 14.7933 62.3486 14.7933 60.7348 13.1796C59.0651 11.5098 59.0659 8.81045 60.7348 7.1418L63.7537 4.12289C64.3251 3.55158 64.5252 2.70516 64.2687 1.93787C64.0122 1.17058 63.3451 0.61394 62.5445 0.499366C58.5604 -0.0635397 54.5282 1.27491 51.6781 4.12075C48.4549 7.34604 47.1831 12.0871 48.361 16.4966L16.7956 48.0609L16.7934 48.0587C12.4006 46.8933 7.63252 48.165 4.41976 51.3778C1.58843 54.2091 0.233328 58.2726 0.796234 62.2462C0.91095 63.0468 1.46759 63.7141 2.23474 63.9704C2.99577 64.2269 3.84632 64.0267 4.41976 63.4554L7.43867 60.4344C9.05238 58.8207 11.8649 58.8207 13.4786 60.4344C15.1484 62.1039 15.1476 64.8033 13.4786 66.4722L10.4597 69.4911C9.88841 70.0624 9.6883 70.9089 9.94477 71.6761C10.2012 72.4434 10.8683 73.0001 11.6689 73.1147C15.6427 73.6801 19.6413 72.3847 22.5354 69.4933C25.7585 66.268 27.0304 61.5269 25.8525 57.1175L57.4179 25.5532L57.42 25.5553C61.8357 26.7249 66.5809 25.449 69.7937 22.2362C72.625 19.4049 73.9801 15.3416 73.4172 11.3678Z" fill="white"/>
<path d="M60.7329 47.6249C59.7218 47.6249 58.6814 47.7771 57.4597 48.1003L49.185 39.8267L40.1254 48.8853L48.3988 57.1592C48.0756 58.3829 47.9234 59.4233 47.9234 60.4344C47.9234 67.498 53.6693 73.2439 60.7329 73.2439C67.7965 73.2439 73.5424 67.498 73.5424 60.4344C73.5424 53.3709 67.7965 47.6249 60.7329 47.6249ZM67.7382 60.007L66.4685 64.7438C66.2703 65.4798 65.6949 66.0552 64.9591 66.2532L60.2223 67.5229C59.5264 67.7148 58.7224 67.5326 58.1604 66.9704L54.6933 63.5033C54.1533 62.9633 53.9428 62.1774 54.1407 61.4414L55.4104 56.7046C55.6086 55.9686 56.184 55.3932 56.9198 55.1952L61.6566 53.9255C62.3885 53.7211 63.1766 53.938 63.7185 54.478L67.1856 57.9451C67.7256 58.4851 67.9361 59.271 67.7382 60.007Z" fill="white"/>
<path d="M25.8494 16.3756C27.0273 11.9661 25.7555 7.22307 22.5323 3.99978C17.6933 -0.837085 9.2516 -0.837085 4.41687 3.99978C-0.576412 8.9952 -0.576412 17.122 4.41687 22.1152C7.62551 25.3239 12.377 26.6144 16.7927 25.4323L25.0306 33.7881L34.0886 24.7311L25.8494 16.3756ZM20.2661 12.4165L18.9963 17.1533C18.7982 17.8893 18.2228 18.4647 17.487 18.6627L12.7502 19.9324C12.0543 20.1242 11.2503 19.942 10.6883 19.3798L7.22115 15.9127C6.68116 15.3728 6.47066 14.5868 6.66864 13.8508L7.93834 9.11404C8.13646 8.37806 8.71189 7.80263 9.44773 7.60465L14.1845 6.33495C14.9205 6.13484 15.7064 6.34747 16.2464 6.88747L19.7135 10.3546C20.2535 10.8946 20.464 11.6805 20.2661 12.4165Z" fill="white"/>
</svg>
